<svg xmlns="http://www.w3.org/2000/svg" viewBox="0 0 610 140" width="610" height="140">
	<style>
		tspan { white-space:pre }
	</style>
	<path id="    SISCOEP    SISTEMA DE CONTRO" fill="#000000" d="" />
	<path id="    SISCOEP    SISTEMA DE CONTRO" fill="#25782d" d="M111.33 75.52L132.54 75.16Q133.35 75.16 133.87 76.52Q134.43 77.89 134.95 78.69Q136.19 80.61 139.04 80.61Q141.93 80.61 143.69 79.29Q145.46 77.93 145.46 75.8Q145.46 73.68 144.37 72.92Q143.29 72.11 142.01 71.39Q140.72 70.63 138.2 70.23Q135.71 69.83 135.47 69.75L135.55 69.75L133.27 69.15Q131.06 68.74 129.58 68.26Q119.99 65.7 115.7 61.81Q111.45 57.92 111.45 51.34Q111.45 46.57 113.22 42.76Q114.98 38.95 117.83 36.54Q126.05 29.61 140.52 29.61Q152.03 29.61 158.61 33.78L158.57 33.78Q162.78 36.83 164.34 39.79Q165.91 42.72 166.31 47.05L165.27 48.09Q154.72 48.49 146.58 48.49Q144.13 48.49 143.65 47.05Q143.45 46.45 143.21 45.85Q142.65 44.4 139.6 44.4L139.44 44.4Q137.08 44.4 135.39 45.53Q133.71 46.61 133.67 47.65Q133.67 48.69 134.11 49.38Q134.59 50.06 135.11 50.46Q135.63 50.86 136.71 51.3Q137.8 51.7 138.32 51.86Q138.88 51.98 140.04 52.3L141.45 52.66Q142.29 52.91 146.34 53.87Q150.43 54.83 153.16 55.71L153.16 55.67Q161.7 58.56 164.78 62.89Q167.91 67.18 167.91 72.92Q167.91 88.19 149.67 92.72Q144.37 94.05 138.36 94.61Q130.98 94.61 123.76 92.44Q116.54 90.28 114.1 85.39Q112.45 83.02 111.89 81.06Q111.33 79.05 110.97 75.48Q111.09 75.52 111.33 75.52ZM172.36 92.2L172.48 87.79Q172.48 79.65 172.92 76.48Q172.92 59.04 173.41 41.32Q173.29 38.79 173.29 36.22L173.29 34.9Q173.13 33.66 173.13 32.7Q173.13 31.73 173.33 31.45Q181.91 31.97 188.36 31.97Q194.82 31.97 197.23 31.73Q197.31 31.85 197.35 32.41L197.06 32.41L197.06 46.93L197.35 79.57Q197.35 79.93 197.47 80.17L197.47 80.25Q197.59 80.49 197.59 80.77L197.91 92.44Q197.71 92.88 197.18 93.13L195.82 93.13L173.37 93.49Q172.96 93.29 172.32 92.88L172.36 92.2ZM204.6 75.52L225.82 75.16Q226.62 75.16 227.14 76.52Q227.7 77.89 228.22 78.69Q229.47 80.61 232.31 80.61Q235.2 80.61 236.96 79.29Q238.73 77.93 238.73 75.8Q238.73 73.68 237.65 72.92Q236.56 72.11 235.28 71.39Q234 70.63 231.47 70.23Q228.98 69.83 228.74 69.75L228.82 69.75L226.54 69.15Q224.33 68.74 222.85 68.26Q213.26 65.7 208.97 61.81Q204.72 57.92 204.72 51.34Q204.72 46.57 206.49 42.76Q208.25 38.95 211.1 36.54Q219.32 29.61 233.8 29.61Q245.3 29.61 251.88 33.78L251.84 33.78Q256.05 36.83 257.62 39.79Q259.18 42.72 259.58 47.05L258.54 48.09Q247.99 48.49 239.85 48.49Q237.4 48.49 236.92 47.05Q236.72 46.45 236.48 45.85Q235.92 44.4 232.87 44.4L232.71 44.4Q230.35 44.4 228.66 45.53Q226.98 46.61 226.94 47.65Q226.94 48.69 227.38 49.38Q227.86 50.06 228.38 50.46Q228.9 50.86 229.99 51.3Q231.07 51.7 231.59 51.86Q232.15 51.98 233.31 52.3L234.72 52.66Q235.56 52.91 239.61 53.87Q243.7 54.83 246.43 55.71L246.43 55.67Q254.97 58.56 258.06 62.89Q261.18 67.18 261.18 72.92Q261.18 88.19 242.94 92.72Q237.65 94.05 231.63 94.61Q224.25 94.61 217.03 92.44Q209.82 90.28 207.37 85.39Q205.73 83.02 205.16 81.06Q204.6 79.05 204.24 75.48Q204.36 75.52 204.6 75.52ZM263.59 60.12Q264.55 50.98 266.8 46.37Q271.09 37.47 279.59 33.74Q287.17 30.41 296.07 30.41Q310.99 30.41 317.84 38.59Q321.98 43.44 322.62 50.66L322.98 54.43Q322.3 55.07 314.36 55.07L307.98 54.99L307.46 54.99L303.97 54.91L303.01 54.95L302.21 54.95Q301.08 54.95 300.48 51.66Q299.92 48.37 298.72 47.33Q297.55 46.25 295.99 46.25Q294.43 46.25 293.22 46.81Q292.06 47.37 291.3 48.17Q290.54 48.94 290.02 50.38Q289.05 52.87 288.85 55.67Q288.65 58.44 288.65 61.89L288.65 62.85L288.49 66.9Q288.49 77.97 294.75 78.21Q296.35 78.21 296.99 77.65Q298.72 76.12 300 71.51Q300.28 70.55 300.68 69.95L302.21 69.95L304.05 69.99L310.55 69.99L312.51 69.95L316.32 69.99L318.65 69.99L321.01 70.03L322.62 70.03Q323.1 70.07 323.3 70.87L323.18 72.19Q322.82 76.93 320.97 80.77Q317.56 87.83 310.23 91.28Q302.93 94.69 294.19 94.69Q278.91 94.69 271.25 85.67Q263.59 76.64 263.59 60.12ZM348.64 59.56L348.48 61.61Q348.48 61.65 348.44 61.81L348.44 61.93Q348.28 63.61 348.28 65.7Q348.28 67.78 348.6 70.11Q348.96 72.43 349.72 74.76Q350.53 77.09 352.17 78.53Q353.93 80.05 356.1 80.05Q358.31 80.05 359.79 79.45Q361.31 78.81 362.32 77.85Q363.36 76.88 364.12 75.24Q366.04 70.87 366.04 61.69Q366.04 52.34 363.88 48.61Q361.75 44.85 357.42 44.85Q355.26 44.85 353.61 45.89Q352.01 46.93 351.17 48.05Q350.37 49.18 349.48 52.83Q348.64 56.47 348.64 59.56ZM325.42 61.93L325.5 61.05Q325.99 56.03 326.79 52.18Q327.59 48.29 329.39 44.93Q333.68 37.51 341.34 33.7Q349.04 29.85 357.9 29.85Q366.81 29.85 374.06 33.42Q378.4 35.54 380.84 38.79Q385.53 44.64 387.02 49.58Q388.5 54.51 388.5 60.97Q388.5 75.32 382.57 82.86L380.72 85.31Q376.99 89.64 370.17 92Q363.36 94.33 356.66 94.41Q345.19 94.41 337.85 89.6Q325.42 81.54 325.42 61.93ZM394.52 48.25L394.56 42.44L394.35 31.89Q394.4 31.89 394.64 32.01Q425.11 31.49 440.55 31.45Q440.71 31.53 440.79 31.69L440.79 43Q440.79 44.64 440.71 45.69Q440.51 46.33 438.34 46.33L438.06 46.33Q428.36 46.33 417.85 46.01Q417.85 46.37 417.73 47.29Q417.65 48.21 417.61 48.61L417.41 50.14Q417.21 51.66 417.13 55.43L429.56 55.15Q432.77 55.07 434.21 55.07L434.86 55.07Q437.3 55.07 438.06 55.23Q438.83 55.35 438.83 56.03L438.79 56.35L438.79 57.32L438.99 67.62L438.95 67.66L438.95 67.62Q426.76 68.22 419.46 68.22L417.57 68.22L417.57 77.93L439.35 77.25Q441.15 77.25 441.63 77.77Q441.59 78.81 441.59 80.73L441.87 91.64Q441.87 92.64 440.99 92.8L427.68 92.68Q423.75 92.68 412.04 92.96L405.46 93.13Q398.49 93.37 395.12 93.37L395 93.29L395.04 93.29Q394.64 92.88 394.27 92.52L394.27 91.12L394.52 48.25ZM447.05 87.27L447.05 65.58L447.13 49.1L447.13 32.37Q447.21 32.33 447.89 32.33L449.37 32.33Q450.21 32.33 450.65 32.25L455.63 32.05Q457.55 31.97 458.59 31.97L464.97 31.97L476.76 31.69Q479.17 31.69 482.05 31.89L482.33 31.89Q483.7 31.81 484.06 31.81Q492.08 31.81 497.77 36.91Q500.54 39.35 502.14 43.2Q503.75 47.05 503.75 51.18Q503.75 55.27 502.9 58.16Q502.06 61.05 500.74 63.05Q495.45 71.15 480.25 72.51L471.59 72.87Q471.19 82.5 471.19 87.83L471.23 89.08L471.23 92.32Q471.07 92.88 470.62 93.09L447.73 93.45Q447.05 91.52 447.05 87.27ZM482.13 48.37Q480.53 44.16 473.63 43.88Q472.63 43.84 470.87 43.84Q470.38 43.84 470.26 55.67L470.18 58.68L470.3 61.09Q475.24 61.01 478.97 59Q482.73 57 482.73 51.7Q482.73 49.46 482.13 48.37Z" />
	<path id="    SISCOEP    SISTEMA DE CONTRO" fill="#ffffff" d="M19.9 110.29L19.9 109.19Q19.83 108.75 19.58 108.36Q19.35 107.98 18.96 107.7Q18.58 107.41 18.1 107.25Q17.62 107.09 17.1 107.09Q16.62 107.09 16.21 107.19Q15.8 107.29 15.49 107.5Q15.19 107.7 15 108.03Q14.82 108.35 14.82 108.8Q14.82 109.36 15.06 109.7Q15.31 110.03 15.69 110.24Q16.07 110.45 16.53 110.58Q17 110.7 17.43 110.85L20.87 112Q21.58 112.25 22.21 112.69Q22.83 113.13 23.28 113.75Q23.75 114.38 24.01 115.19Q24.27 116 24.27 117.01Q24.27 118.39 23.76 119.52Q23.26 120.66 22.35 121.47Q21.43 122.29 20.16 122.74Q18.88 123.19 17.33 123.19Q16.25 123.19 15.27 122.95Q14.31 122.7 13.51 122.24Q12.71 121.77 12.11 121.14Q11.51 120.49 11.17 119.67L9.89 119.67L9.89 115.91L14.41 115.91L14.41 116.69Q14.41 117.25 14.59 117.72Q14.77 118.2 15.14 118.55Q15.5 118.9 16.05 119.1Q16.6 119.29 17.33 119.29Q18.46 119.29 19.05 118.77Q19.63 118.25 19.63 117.32Q19.63 116.85 19.42 116.54Q19.22 116.21 18.9 116Q18.57 115.78 18.17 115.63Q17.77 115.48 17.38 115.35L14.52 114.43Q13.71 114.18 12.95 113.73Q12.2 113.28 11.61 112.6Q11.04 111.93 10.69 111.03Q10.35 110.11 10.35 108.95Q10.35 107.6 10.85 106.55Q11.35 105.49 12.25 104.76Q13.15 104.04 14.39 103.66Q15.62 103.29 17.1 103.29Q18.26 103.29 19.25 103.56Q20.23 103.83 21.01 104.28Q21.8 104.73 22.33 105.31Q22.88 105.89 23.17 106.51L24.42 106.51L24.42 110.29L19.9 110.29ZM26.35 107.28L26.35 103.85L34.46 103.85L34.46 107.28L32.46 107.28L32.46 119.37L34.46 119.37L34.46 122.8L26.35 122.8L26.35 119.37L28.31 119.37L28.31 107.28L26.35 107.28ZM45.58 110.29L45.58 109.19Q45.52 108.75 45.27 108.36Q45.03 107.98 44.64 107.7Q44.27 107.41 43.78 107.25Q43.31 107.09 42.78 107.09Q42.31 107.09 41.89 107.19Q41.48 107.29 41.17 107.5Q40.87 107.7 40.68 108.03Q40.51 108.35 40.51 108.8Q40.51 109.36 40.74 109.7Q40.99 110.03 41.37 110.24Q41.76 110.45 42.22 110.58Q42.68 110.7 43.12 110.85L46.56 112Q47.27 112.25 47.89 112.69Q48.52 113.13 48.97 113.75Q49.43 114.38 49.69 115.19Q49.96 116 49.96 117.01Q49.96 118.39 49.44 119.52Q48.94 120.66 48.03 121.47Q47.12 122.29 45.84 122.74Q44.57 123.19 43.02 123.19Q41.93 123.19 40.96 122.95Q39.99 122.7 39.19 122.24Q38.4 121.77 37.8 121.14Q37.2 120.49 36.86 119.67L35.57 119.67L35.57 115.91L40.09 115.91L40.09 116.69Q40.09 117.25 40.27 117.72Q40.46 118.2 40.82 118.55Q41.18 118.9 41.73 119.1Q42.28 119.29 43.02 119.29Q44.14 119.29 44.73 118.77Q45.32 118.25 45.32 117.32Q45.32 116.85 45.11 116.54Q44.91 116.21 44.58 116Q44.26 115.78 43.86 115.63Q43.46 115.48 43.07 115.35L40.21 114.43Q39.39 114.18 38.63 113.73Q37.88 113.28 37.3 112.6Q36.72 111.93 36.37 111.03Q36.03 110.11 36.03 108.95Q36.03 107.6 36.53 106.55Q37.03 105.49 37.93 104.76Q38.83 104.04 40.07 103.66Q41.31 103.29 42.78 103.29Q43.94 103.29 44.93 103.56Q45.92 103.83 46.69 104.28Q47.48 104.73 48.02 105.31Q48.57 105.89 48.86 106.51L50.11 106.51L50.11 110.29L45.58 110.29ZM55.28 122.8L55.28 119.37L57.24 119.37L57.24 107.16L54.94 107.16L54.94 109.61L50.87 109.61L50.87 103.85L68.1 103.85L68.1 109.61L64 109.61L64 107.16L61.39 107.16L61.39 119.37L63.39 119.37L63.39 122.8L55.28 122.8ZM69.9 107.63L69.9 103.85L84.98 103.85L84.98 110.31L80.9 110.31L80.9 107.63L76.04 107.63L76.04 111.36L79.8 111.36L79.8 114.99L76.04 114.99L76.04 119.37L80.9 119.37L80.9 116.01L84.98 116.01L84.98 122.8L69.9 122.8L69.9 119.37L71.89 119.37L71.89 107.63L69.9 107.63ZM87.15 122.8L87.15 119.37L88.91 119.37L88.91 107.29L87.15 107.29L87.15 103.85L94.95 103.85L100.54 117.52L105.72 103.85L113.64 103.85L113.64 107.29L111.87 107.29L111.87 119.37L113.61 119.37L113.61 122.8L106.52 122.8L106.52 119.37L107.82 119.37L107.82 108.48L102.15 122.57L98.64 122.57L92.86 108.85L92.86 119.37L94.28 119.37L94.28 122.8L87.15 122.8ZM126.21 122.8L126.21 119.37L128.1 119.37L127.25 116.65L121.42 116.65L120.57 119.37L122.57 119.37L122.57 122.8L115.39 122.8L115.39 119.37L116.8 119.37L121.96 103.85L126.97 103.85L132.02 119.37L133.4 119.37L133.4 122.8L126.21 122.8ZM124.31 107.29L122.41 113.45L126.24 113.45L124.31 107.29ZM139.83 107.29L139.83 103.85L147.11 103.85Q148.41 103.85 149.6 104.19Q150.79 104.53 151.82 105.14Q152.86 105.75 153.69 106.61Q154.54 107.46 155.14 108.51Q155.74 109.56 156.07 110.78Q156.39 111.99 156.39 113.3Q156.39 114.61 156.07 115.83Q155.74 117.04 155.14 118.1Q154.54 119.15 153.69 120.02Q152.86 120.89 151.82 121.51Q150.79 122.12 149.6 122.46Q148.41 122.8 147.11 122.8L139.83 122.8L139.83 119.37L141.35 119.37L141.35 107.29L139.83 107.29ZM147.08 107.29L145.5 107.29L145.5 119.37L147.08 119.37Q148.1 119.37 149 118.9Q149.89 118.42 150.56 117.61Q151.22 116.79 151.61 115.69Q151.99 114.58 151.99 113.3Q151.99 112.04 151.61 110.94Q151.22 109.84 150.56 109.03Q149.89 108.21 149 107.75Q148.1 107.29 147.08 107.29ZM158.57 107.63L158.57 103.85L173.64 103.85L173.64 110.31L169.57 110.31L169.57 107.63L164.71 107.63L164.71 111.36L168.47 111.36L168.47 114.99L164.71 114.99L164.71 119.37L169.57 119.37L169.57 116.01L173.64 116.01L173.64 122.8L158.57 122.8L158.57 119.37L160.56 119.37L160.56 107.63L158.57 107.63ZM197.21 109.61L193.35 109.61Q192.65 108.61 192.09 108.2Q191.53 107.78 190.88 107.6Q190.23 107.41 189.52 107.41Q188.47 107.41 187.57 107.89Q186.67 108.35 186 109.16Q185.35 109.96 184.98 111.04Q184.6 112.1 184.6 113.3Q184.6 114.51 184.97 115.59Q185.34 116.65 185.99 117.45Q186.64 118.25 187.54 118.72Q188.44 119.19 189.52 119.19Q190.27 119.19 190.92 118.95Q191.57 118.7 192.09 118.3Q192.63 117.9 193.03 117.39Q193.43 116.86 193.65 116.3L197.68 117.42Q197.29 118.65 196.54 119.7Q195.79 120.74 194.73 121.5Q193.68 122.26 192.35 122.7Q191.04 123.14 189.52 123.14Q188.23 123.14 187.05 122.79Q185.88 122.44 184.85 121.8Q183.84 121.16 183 120.26Q182.18 119.36 181.59 118.27Q181 117.17 180.68 115.93Q180.35 114.66 180.35 113.3Q180.35 111.26 181.07 109.49Q181.78 107.7 183.02 106.38Q184.25 105.04 185.92 104.28Q187.59 103.5 189.52 103.5Q191.05 103.5 192.1 103.89Q193.15 104.26 194.41 105.39L197.21 105.39L197.21 109.61ZM208.94 123.14Q207.65 123.14 206.48 122.79Q205.3 122.44 204.28 121.8Q203.26 121.16 202.43 120.27Q201.6 119.37 201.01 118.29Q200.43 117.19 200.1 115.94Q199.78 114.69 199.78 113.33Q199.78 111.96 200.1 110.71Q200.43 109.45 201.01 108.36Q201.6 107.26 202.43 106.38Q203.26 105.48 204.28 104.84Q205.3 104.2 206.48 103.85Q207.65 103.5 208.94 103.5Q210.23 103.5 211.4 103.85Q212.59 104.2 213.6 104.84Q214.63 105.48 215.45 106.38Q216.29 107.26 216.87 108.36Q217.47 109.45 217.8 110.71Q218.12 111.96 218.12 113.33Q218.12 114.68 217.8 115.94Q217.47 117.19 216.87 118.29Q216.29 119.37 215.45 120.27Q214.63 121.16 213.6 121.8Q212.59 122.44 211.4 122.79Q210.23 123.14 208.94 123.14ZM208.94 119.21Q210.03 119.21 210.93 118.75Q211.84 118.27 212.49 117.47Q213.14 116.66 213.49 115.6Q213.85 114.53 213.85 113.33Q213.85 112.11 213.49 111.04Q213.13 109.96 212.46 109.16Q211.81 108.35 210.91 107.89Q210.01 107.41 208.94 107.41Q207.86 107.41 206.96 107.89Q206.06 108.35 205.41 109.16Q204.76 109.96 204.39 111.04Q204.03 112.11 204.03 113.33Q204.03 114.53 204.39 115.6Q204.76 116.66 205.41 117.47Q206.06 118.27 206.96 118.75Q207.86 119.21 208.94 119.21ZM232.59 107.29L232.59 103.85L239.78 103.85L239.78 107.29L238.25 107.29L238.25 122.8L234.1 122.8L226.21 110.55L226.21 119.37L227.8 119.37L227.8 122.8L220.61 122.8L220.61 119.37L222.17 119.37L222.17 107.29L220.64 107.29L220.64 103.85L226.36 103.85L234.2 116.26L234.2 107.29L232.59 107.29ZM245.08 122.8L245.08 119.37L247.05 119.37L247.05 107.16L244.75 107.16L244.75 109.61L240.67 109.61L240.67 103.85L257.91 103.85L257.91 109.61L253.81 109.61L253.81 107.16L251.2 107.16L251.2 119.37L253.2 119.37L253.2 122.8L245.08 122.8ZM259.71 107.29L259.71 103.85L269.73 103.85Q271.19 103.85 272.34 104.29Q273.49 104.73 274.28 105.46Q275.07 106.19 275.48 107.16Q275.91 108.13 275.91 109.18Q275.91 110.14 275.69 110.86Q275.49 111.59 275.09 112.15Q274.71 112.71 274.13 113.15Q273.56 113.58 272.82 113.93Q273.46 114.25 273.94 114.93Q274.43 115.59 274.68 116.65L275.32 119.11L276.88 119.11L276.91 122.8L271.41 122.8L270.66 118.3Q270.54 117.5 270.31 116.92Q270.08 116.34 269.69 115.98Q269.31 115.6 268.74 115.43Q268.19 115.25 267.43 115.25L265.82 115.25L265.82 119.37L267.56 119.37L267.56 122.8L259.71 122.8L259.71 119.37L261.67 119.37L261.67 107.29L259.71 107.29ZM268.31 107.29L265.82 107.29L265.82 111.88L268.31 111.88Q269.02 111.88 269.58 111.75Q270.16 111.61 270.56 111.34Q270.97 111.05 271.18 110.63Q271.41 110.2 271.41 109.61Q271.41 108.51 270.62 107.9Q269.83 107.29 268.31 107.29ZM287.4 123.14Q286.12 123.14 284.94 122.79Q283.77 122.44 282.74 121.8Q281.73 121.16 280.89 120.27Q280.07 119.37 279.48 118.29Q278.89 117.19 278.57 115.94Q278.24 114.69 278.24 113.33Q278.24 111.96 278.57 110.71Q278.89 109.45 279.48 108.36Q280.07 107.26 280.89 106.38Q281.73 105.48 282.74 104.84Q283.77 104.2 284.94 103.85Q286.12 103.5 287.4 103.5Q288.69 103.5 289.87 103.85Q291.05 104.2 292.07 104.84Q293.09 105.48 293.92 106.38Q294.75 107.26 295.34 108.36Q295.94 109.45 296.27 110.71Q296.59 111.96 296.59 113.33Q296.59 114.68 296.27 115.94Q295.94 117.19 295.34 118.29Q294.75 119.37 293.92 120.27Q293.09 121.16 292.07 121.8Q291.05 122.44 289.87 122.79Q288.69 123.14 287.4 123.14ZM287.4 119.21Q288.49 119.21 289.39 118.75Q290.3 118.27 290.95 117.47Q291.6 116.66 291.95 115.6Q292.32 114.53 292.32 113.33Q292.32 112.11 291.95 111.04Q291.59 109.96 290.93 109.16Q290.28 108.35 289.38 107.89Q288.48 107.41 287.4 107.41Q286.33 107.41 285.43 107.89Q284.53 108.35 283.88 109.16Q283.23 109.96 282.86 111.04Q282.49 112.11 282.49 113.33Q282.49 114.53 282.86 115.6Q283.23 116.66 283.88 117.47Q284.53 118.27 285.43 118.75Q286.33 119.21 287.4 119.21ZM299.08 107.29L299.08 103.85L307.19 103.85L307.19 107.29L305.19 107.29L305.19 119.37L309.31 119.37Q309.48 119.37 309.63 119.29Q309.79 119.19 309.9 119.04Q310.03 118.89 310.1 118.71Q310.18 118.54 310.18 118.37L310.18 115.84L314.23 115.84L314.23 122.8L299.08 122.8L299.08 119.37L301.04 119.37L301.04 107.29L299.08 107.29ZM315.9 107.63L315.9 103.85L330.97 103.85L330.97 110.31L326.9 110.31L326.9 107.63L322.04 107.63L322.04 111.36L325.8 111.36L325.8 114.99L322.04 114.99L322.04 119.37L326.9 119.37L326.9 116.01L330.97 116.01L330.97 122.8L315.9 122.8L315.9 119.37L317.89 119.37L317.89 107.63L315.9 107.63ZM337.89 107.29L337.89 103.85L345.16 103.85Q346.46 103.85 347.65 104.19Q348.85 104.53 349.87 105.14Q350.91 105.75 351.75 106.61Q352.6 107.46 353.2 108.51Q353.8 109.56 354.12 110.78Q354.45 111.99 354.45 113.3Q354.45 114.61 354.12 115.83Q353.8 117.04 353.2 118.1Q352.6 119.15 351.75 120.02Q350.91 120.89 349.87 121.51Q348.85 122.12 347.65 122.46Q346.46 122.8 345.16 122.8L337.89 122.8L337.89 119.37L339.4 119.37L339.4 107.29L337.89 107.29ZM345.14 107.29L343.55 107.29L343.55 119.37L345.14 119.37Q346.15 119.37 347.05 118.9Q347.95 118.42 348.61 117.61Q349.27 116.79 349.66 115.69Q350.05 114.58 350.05 113.3Q350.05 112.04 349.66 110.94Q349.27 109.84 348.61 109.03Q347.95 108.21 347.05 107.75Q346.15 107.29 345.14 107.29ZM356.62 107.63L356.62 103.85L371.7 103.85L371.7 110.31L367.62 110.31L367.62 107.63L362.76 107.63L362.76 111.36L366.52 111.36L366.52 114.99L362.76 114.99L362.76 119.37L367.62 119.37L367.62 116.01L371.7 116.01L371.7 122.8L356.62 122.8L356.62 119.37L358.61 119.37L358.61 107.63L356.62 107.63ZM378.99 107.63L378.99 103.85L394.07 103.85L394.07 110.31L389.99 110.31L389.99 107.63L385.13 107.63L385.13 111.36L388.89 111.36L388.89 114.99L385.13 114.99L385.13 119.37L389.99 119.37L389.99 116.01L394.07 116.01L394.07 122.8L378.99 122.8L378.99 119.37L380.98 119.37L380.98 107.63L378.99 107.63ZM403.04 126.1L403.07 122.95Q401.47 122.62 400.1 121.76Q398.75 120.89 397.75 119.61Q396.77 118.34 396.2 116.74Q395.65 115.13 395.65 113.33Q395.65 111.96 395.98 110.71Q396.3 109.45 396.89 108.36Q397.48 107.26 398.3 106.38Q399.14 105.48 400.15 104.84Q401.18 104.2 402.35 103.85Q403.53 103.5 404.82 103.5Q406.1 103.5 407.28 103.85Q408.47 104.2 409.48 104.84Q410.5 105.48 411.33 106.38Q412.17 107.26 412.75 108.36Q413.35 109.45 413.68 110.71Q414 111.96 414 113.33Q414 115.15 413.43 116.77Q412.85 118.4 411.83 119.69Q410.82 120.97 409.42 121.84Q408.02 122.7 406.38 122.99Q406.77 123.15 407.14 123.35Q407.53 123.54 407.92 123.71Q408.3 123.87 408.68 124Q409.07 124.11 409.47 124.12Q409.85 124.12 410.22 124.02Q410.59 123.92 410.89 123.71Q411.19 123.5 411.4 123.16Q411.63 122.82 411.7 122.34L414.49 123.72Q414.38 124.64 413.97 125.37Q413.57 126.11 412.93 126.64Q412.29 127.16 411.48 127.45Q410.67 127.74 409.75 127.74Q409.02 127.74 408.27 127.46Q407.53 127.17 406.83 126.85Q406.14 126.51 405.53 126.24Q404.92 125.95 404.45 125.95Q404.25 125.95 404.09 125.95Q403.94 125.94 403.79 125.95Q403.64 125.95 403.45 125.99Q403.28 126.01 403.04 126.1ZM404.82 119.21Q405.9 119.21 406.8 118.75Q407.72 118.27 408.37 117.47Q409.02 116.66 409.37 115.6Q409.73 114.53 409.73 113.33Q409.73 112.11 409.37 111.04Q409 109.96 408.34 109.16Q407.69 108.35 406.79 107.89Q405.89 107.41 404.82 107.41Q403.74 107.41 402.84 107.89Q401.94 108.35 401.29 109.16Q400.64 109.96 400.27 111.04Q399.9 112.11 399.9 113.33Q399.9 114.53 400.27 115.6Q400.64 116.66 401.29 117.47Q401.94 118.27 402.84 118.75Q403.74 119.21 404.82 119.21ZM415.89 107.29L415.89 103.85L423.49 103.85L423.49 107.29L421.75 107.29L421.75 115.15Q421.75 116.23 421.99 116.97Q422.24 117.72 422.68 118.2Q423.11 118.67 423.71 118.9Q424.31 119.11 425.03 119.11Q425.76 119.11 426.36 118.92Q426.98 118.74 427.4 118.29Q427.84 117.82 428.06 117.06Q428.3 116.3 428.3 115.15L428.3 107.29L426.29 107.29L426.29 103.85L433.89 103.85L433.89 107.29L432.38 107.29L432.38 114.66Q432.38 116.66 431.8 118.22Q431.23 119.77 430.21 120.85Q429.21 121.92 427.85 122.49Q426.5 123.05 424.95 123.05Q423.41 123.05 422.08 122.5Q420.74 121.94 419.74 120.89Q418.75 119.82 418.18 118.31Q417.6 116.8 417.6 114.89L417.6 107.29L415.89 107.29ZM436.18 107.28L436.18 103.85L444.29 103.85L444.29 107.28L442.29 107.28L442.29 119.37L444.29 119.37L444.29 122.8L436.18 122.8L436.18 119.37L438.14 119.37L438.14 107.28L436.18 107.28ZM446.3 107.29L446.3 103.85L455.05 103.85Q456.51 103.85 457.74 104.31Q458.96 104.76 459.85 105.54Q460.74 106.31 461.23 107.33Q461.73 108.34 461.73 109.44Q461.73 110.76 461.33 111.93Q460.95 113.08 460.12 113.93Q459.3 114.78 458.04 115.28Q456.77 115.76 455.05 115.76L452.41 115.76L452.41 119.37L454.15 119.37L454.15 122.8L446.3 122.8L446.3 119.37L448.26 119.37L448.26 107.29L446.3 107.29ZM454.12 107.29L452.41 107.29L452.41 112.38L454.12 112.38Q455.55 112.38 456.39 111.78Q457.22 111.18 457.22 109.88Q457.22 108.66 456.44 107.98Q455.65 107.29 454.12 107.29ZM473.55 122.8L473.55 119.37L475.43 119.37L474.58 116.65L468.76 116.65L467.91 119.37L469.91 119.37L469.91 122.8L462.72 122.8L462.72 119.37L464.13 119.37L469.3 103.85L474.31 103.85L479.36 119.37L480.73 119.37L480.73 122.8L473.55 122.8ZM471.65 107.29L469.75 113.45L473.57 113.45L471.65 107.29ZM482.43 122.8L482.43 119.37L484.19 119.37L484.19 107.29L482.43 107.29L482.43 103.85L490.23 103.85L495.82 117.52L501.01 103.85L508.92 103.85L508.92 107.29L507.15 107.29L507.15 119.37L508.89 119.37L508.89 122.8L501.81 122.8L501.81 119.37L503.11 119.37L503.11 108.48L497.43 122.57L493.92 122.57L488.14 108.85L488.14 119.37L489.56 119.37L489.56 122.8L482.43 122.8ZM511.74 107.63L511.74 103.85L526.82 103.85L526.82 110.31L522.74 110.31L522.74 107.63L517.88 107.63L517.88 111.36L521.64 111.36L521.64 114.99L517.88 114.99L517.88 119.37L522.74 119.37L522.74 116.01L526.82 116.01L526.82 122.8L511.74 122.8L511.74 119.37L513.73 119.37L513.73 107.63L511.74 107.63ZM540.96 107.29L540.96 103.85L548.16 103.85L548.16 107.29L546.63 107.29L546.63 122.8L542.48 122.8L534.59 110.55L534.59 119.37L536.18 119.37L536.18 122.8L528.99 122.8L528.99 119.37L530.55 119.37L530.55 107.29L529.01 107.29L529.01 103.85L534.74 103.85L542.58 116.26L542.58 107.29L540.96 107.29ZM553.46 122.8L553.46 119.37L555.42 119.37L555.42 107.16L553.12 107.16L553.12 109.61L549.05 109.61L549.05 103.85L566.29 103.85L566.29 109.61L562.19 109.61L562.19 107.16L559.57 107.16L559.57 119.37L561.57 119.37L561.57 122.8L553.46 122.8ZM576.66 123.14Q575.37 123.14 574.2 122.79Q573.02 122.44 572 121.8Q570.99 121.16 570.15 120.27Q569.32 119.37 568.74 118.29Q568.15 117.19 567.82 115.94Q567.5 114.69 567.5 113.33Q567.5 111.96 567.82 110.71Q568.15 109.45 568.74 108.36Q569.32 107.26 570.15 106.38Q570.99 105.48 572 104.84Q573.02 104.2 574.2 103.85Q575.37 103.5 576.66 103.5Q577.95 103.5 579.12 103.85Q580.31 104.2 581.32 104.84Q582.35 105.48 583.17 106.38Q584.01 107.26 584.6 108.36Q585.2 109.45 585.52 110.71Q585.85 111.96 585.85 113.33Q585.85 114.68 585.52 115.94Q585.2 117.19 584.6 118.29Q584.01 119.37 583.17 120.27Q582.35 121.16 581.32 121.8Q580.31 122.44 579.12 122.79Q577.95 123.14 576.66 123.14ZM576.66 119.21Q577.75 119.21 578.65 118.75Q579.56 118.27 580.21 117.47Q580.86 116.66 581.21 115.6Q581.57 114.53 581.57 113.33Q581.57 112.11 581.21 111.04Q580.85 109.96 580.18 109.16Q579.53 108.35 578.63 107.89Q577.73 107.41 576.66 107.41Q575.58 107.41 574.68 107.89Q573.78 108.35 573.13 109.16Q572.48 109.96 572.11 111.04Q571.75 112.11 571.75 113.33Q571.75 114.53 572.11 115.6Q572.48 116.66 573.13 117.47Q573.78 118.27 574.68 118.75Q575.58 119.21 576.66 119.21ZM597.44 110.29L597.44 109.19Q597.38 108.75 597.13 108.36Q596.89 107.98 596.51 107.7Q596.13 107.41 595.64 107.25Q595.17 107.09 594.64 107.09Q594.17 107.09 593.76 107.19Q593.35 107.29 593.03 107.5Q592.73 107.7 592.55 108.03Q592.37 108.35 592.37 108.8Q592.37 109.36 592.61 109.7Q592.86 110.03 593.23 110.24Q593.62 110.45 594.08 110.58Q594.54 110.7 594.98 110.85L598.42 112Q599.13 112.25 599.76 112.69Q600.38 113.13 600.83 113.75Q601.29 114.38 601.56 115.19Q601.82 116 601.82 117.01Q601.82 118.39 601.31 119.52Q600.81 120.66 599.89 121.47Q598.98 122.29 597.71 122.74Q596.43 123.19 594.88 123.19Q593.8 123.19 592.82 122.95Q591.86 122.7 591.06 122.24Q590.26 121.77 589.66 121.14Q589.06 120.49 588.72 119.67L587.43 119.67L587.43 115.91L591.96 115.91L591.96 116.69Q591.96 117.25 592.13 117.72Q592.32 118.2 592.68 118.55Q593.05 118.9 593.6 119.1Q594.15 119.29 594.88 119.29Q596.01 119.29 596.59 118.77Q597.18 118.25 597.18 117.32Q597.18 116.85 596.97 116.54Q596.77 116.21 596.44 116Q596.12 115.78 595.72 115.63Q595.32 115.48 594.93 115.35L592.07 114.43Q591.26 114.18 590.5 113.73Q589.75 113.28 589.16 112.6Q588.58 111.93 588.23 111.03Q587.9 110.11 587.9 108.95Q587.9 107.6 588.4 106.55Q588.9 105.49 589.8 104.76Q590.7 104.04 591.93 103.66Q593.17 103.29 594.64 103.29Q595.81 103.29 596.79 103.56Q597.78 103.83 598.56 104.28Q599.34 104.73 599.88 105.31Q600.43 105.89 600.72 106.51L601.97 106.51L601.97 110.29L597.44 110.29Z" />
</svg>